<svg xmlns="http://www.w3.org/2000/svg" xmlns:v="https://svgstorm.com"
viewBox = "0 0 1024 1024"
width="1024"
height="1024">
<g fill="None" fill-opacity="0.0" stroke="#E9E9E9" stroke-opacity="1.00" stroke-width="0.3"><path d="
M 0.00 1024.00 
L 1024.00 1024.00
L 1024.00 0.00
L 0.00 0.00
L 0.00 1024.00
M 410.00 322.00 
C 411.23 344.66 386.55 362.02 368.25 344.75 C 349.95 327.48 365.64 300.41 389.00 302.00
C 399.93 302.74 409.38 310.49 410.00 322.00
M 355.00 429.00 
C 354.13 444.99 348.83 460.75 335.75 471.75 C 322.68 482.76 309.43 488.14 290.98 488.98 C 272.53 489.82 257.81 484.19 239.32 477.68 C 220.84 471.16 223.28 450.13 224.00 431.00 C 224.72 411.87 224.00 387.60 224.00 368.00
C 224.00 359.73 222.92 344.58 224.00 337.00 C 225.08 329.42 219.28 312.53 228.08 310.08 C 236.89 307.63 249.27 310.01 259.00 310.00 C 268.73 309.99 265.87 326.27 266.00 334.00 C 266.13 341.73 265.90 356.62 266.00 365.00
C 308.16 335.84 365.52 380.02 355.00 429.00
M 538.00 433.00 
C 538.00 440.97 539.10 451.27 538.00 459.00 C 536.90 466.73 542.05 477.76 535.25 483.25 C 528.45 488.74 519.06 482.52 510.00 485.00 C 500.94 487.48 494.28 481.50 496.00 472.00 C 497.72 462.50 495.68 454.20 496.00 445.00 C 496.32 435.80 496.88 427.05 496.00 418.00
C 494.71 404.70 484.55 395.08 471.00 401.00
C 467.90 403.26 464.71 405.90 462.00 408.00
C 461.80 408.32 461.11 408.74 461.00 409.00
C 457.37 417.72 457.02 426.86 458.00 437.00 C 458.98 447.14 455.57 458.48 458.00 469.00 C 460.43 479.52 452.51 487.69 443.00 485.00 C 433.49 482.31 419.66 490.04 416.08 479.92 C 412.50 469.80 417.23 459.33 416.00 449.00 C 414.77 438.67 416.00 427.41 416.00 417.00
C 416.00 416.50 416.00 416.00 416.00 416.00
C 411.23 409.56 416.66 396.21 415.00 388.00 C 413.34 379.79 415.70 368.16 416.00 360.00
C 417.33 360.00 418.67 360.00 420.00 360.00
C 427.89 358.37 435.98 361.40 444.00 360.00 C 452.02 358.60 461.09 360.57 458.00 371.00
C 475.37 357.41 500.67 348.54 521.08 363.92 C 541.49 379.30 538.03 409.62 538.00 433.00
M 674.00 381.00 
C 677.52 392.59 675.00 409.36 675.00 422.00
C 675.00 432.82 675.09 445.35 675.00 456.00 C 674.91 466.65 675.43 479.18 674.00 489.00 C 672.57 498.82 668.92 504.90 663.75 512.75 C 658.58 520.60 652.40 523.69 644.31 528.31 C 636.21 532.92 627.71 534.22 618.00 536.00 C 608.28 537.78 597.64 536.40 587.78 534.22 C 577.91 532.05 572.09 529.11 562.31 524.69 C 552.52 520.28 553.77 513.18 557.98 504.98 C 562.18 496.77 565.22 485.92 574.69 492.31 C 584.17 498.69 590.21 499.04 600.01 501.99 C 609.80 504.95 619.23 500.99 626.75 496.75 C 634.26 492.50 637.00 474.57 628.26 478.26 C 619.51 481.94 610.71 486.59 601.00 486.00 C 591.29 485.41 582.22 483.30 574.31 478.70 C 566.39 474.09 562.26 469.35 556.70 462.30 C 551.13 455.26 548.56 445.69 547.00 437.00
C 544.26 421.73 545.21 401.48 552.92 387.92 C 560.64 374.37 570.66 365.76 584.22 360.22 C 597.79 354.69 623.28 353.92 636.02 358.98 C 648.77 364.03 669.78 367.08 674.00 381.00
M 763.00 437.00 
C 752.02 438.23 742.36 436.81 731.00 438.00 C 719.64 439.19 731.55 451.93 739.07 452.93 C 746.60 453.92 761.68 453.84 768.22 451.22 C 774.76 448.60 787.57 440.11 790.77 447.23 C 793.96 454.35 802.15 461.87 801.00 470.00 C 799.85 478.14 786.85 480.05 779.98 482.98 C 773.10 485.91 760.64 487.81 752.00 488.00 C 743.36 488.19 730.12 488.16 722.31 484.69 C 714.49 481.23 707.72 478.58 701.75 472.25 C 695.78 465.92 691.32 461.03 688.23 452.77 C 685.14 444.51 683.00 433.24 683.00 424.00
C 683.00 398.83 693.99 366.91 721.07 360.07 C 748.16 353.24 778.74 352.40 796.25 378.75 C 813.76 405.09 791.43 433.82 763.00 437.00
M 406.00 366.00 
C 410.60 381.17 407.00 403.60 407.00 420.00
C 407.00 429.58 407.86 440.56 407.00 450.00 C 406.14 459.44 409.66 471.81 406.00 480.00
C 405.02 482.19 404.20 483.02 402.00 484.00
C 394.82 487.21 378.35 485.71 371.00 484.00
C 360.18 481.48 364.39 469.82 364.00 460.00 C 363.61 450.18 364.00 438.03 364.00 428.00
C 364.00 417.13 364.28 400.27 364.00 390.00 C 363.72 379.73 361.14 358.69 373.00 360.00 C 384.87 361.31 402.46 354.35 406.00 366.00
M 407.00 550.00 
C 415.08 545.81 421.41 539.87 430.67 537.67 C 439.93 535.48 453.66 535.03 462.08 539.92 C 470.49 544.82 476.21 548.07 480.75 557.25 C 485.30 566.42 487.35 576.01 487.78 587.22 C 488.20 598.43 488.63 611.79 488.00 624.00 C 487.37 636.21 489.85 646.69 488.00 660.00 C 486.15 673.31 471.71 665.29 459.00 668.00 C 446.29 670.71 444.11 655.10 446.00 644.00 C 447.89 632.90 444.95 618.31 446.00 608.00 C 447.05 597.69 445.84 584.89 436.75 580.25 C 427.67 575.60 417.74 577.87 411.70 586.70 C 405.65 595.52 406.79 606.64 407.00 619.00 C 407.21 631.36 406.69 641.79 407.00 656.00 C 407.31 670.21 396.07 666.61 383.00 668.00 C 369.93 669.39 361.44 664.31 364.00 650.00 C 366.56 635.69 362.76 626.31 364.00 613.00 C 365.24 599.69 363.32 590.00 364.00 577.00 C 364.68 564.00 363.41 553.26 364.00 540.00 C 364.59 526.75 363.11 517.12 364.00 503.00 C 364.89 488.88 377.45 495.26 390.00 493.00 C 402.55 490.74 410.10 499.68 407.00 513.00 C 403.90 526.32 409.32 536.01 407.00 549.00
M 307.00 536.00 
C 320.08 536.00 325.32 538.34 338.07 541.93 C 350.83 545.51 348.75 553.18 344.69 564.69 C 340.63 576.21 336.84 579.96 325.92 575.08 C 315.01 570.19 305.67 566.97 294.78 571.78 C 283.88 576.59 299.54 585.91 308.07 585.93 C 316.61 585.94 328.54 591.50 336.70 595.31 C 344.85 599.11 350.31 607.08 352.98 616.03 C 355.64 624.97 355.83 639.03 350.69 647.70 C 345.56 656.36 340.67 660.69 331.31 665.31 C 321.94 669.92 310.21 670.48 299.00 671.00 C 287.79 671.52 276.74 667.45 265.98 666.02 C 255.22 664.60 247.23 656.40 252.78 647.78 C 258.33 639.15 256.79 623.70 268.69 628.31 C 280.60 632.91 284.25 633.85 297.01 636.99 C 309.77 640.14 318.74 628.21 306.77 623.23 C 294.81 618.25 287.87 619.41 277.78 615.22 C 267.68 611.03 261.44 608.05 255.75 599.25 C 250.05 590.45 250.06 577.02 251.33 567.33 C 252.60 557.64 258.43 550.02 266.25 544.25 C 274.06 538.48 286.43 536.37 296.00 536.00
C 299.60 535.49 303.51 535.66 307.00 536.00
M 712.00 536.00 
C 721.03 536.00 730.42 538.18 738.23 541.77 C 746.04 545.36 751.40 549.23 757.25 555.75 C 763.09 562.27 766.26 568.45 769.32 576.68 C 772.38 584.90 774.27 595.75 774.00 605.00 C 773.73 614.25 771.92 624.36 768.68 632.68 C 765.44 641.00 761.39 645.89 755.75 652.75 C 750.11 659.61 743.52 661.67 736.31 666.31 C 729.09 670.94 714.45 668.21 707.00 670.00 C 699.55 671.79 686.13 660.50 683.00 665.00
C 680.18 671.24 684.25 681.11 683.00 688.00 C 681.75 694.89 683.94 703.61 682.00 710.00
C 679.38 718.65 657.40 716.18 647.00 715.00 C 636.60 713.82 640.18 692.01 640.00 681.00 C 639.82 669.99 640.07 652.38 640.00 640.00 C 639.93 627.62 640.00 611.89 640.00 599.00 C 640.00 586.11 639.93 570.88 640.00 558.00 C 640.07 545.12 654.71 544.91 664.68 541.68 C 674.65 538.45 688.90 536.00 700.00 536.00
C 703.77 535.63 708.29 535.64 712.00 536.00
M 630.00 597.00 
C 630.61 601.27 630.60 605.79 630.00 610.00
C 628.09 660.08 568.59 686.67 527.75 661.25 C 486.91 635.82 487.45 574.48 526.75 547.75 C 566.05 521.02 628.11 547.55 630.00 597.00 Z"/>
</g>
<g fill="None" fill-opacity="0.0" stroke="#298A77" stroke-opacity="1.00" stroke-width="0.3"><path d="
M 410.00 322.00 
C 408.27 312.36 398.33 303.51 389.00 302.00
C 365.64 300.41 349.95 327.48 368.25 344.75 C 386.55 362.02 411.23 344.66 410.00 322.00 Z"/>
</g>
<g fill="None" fill-opacity="0.0" stroke="#CCEDE7" stroke-opacity="1.00" stroke-width="0.3"><path d="
M 410.00 322.00 
C 409.38 310.49 399.93 302.74 389.00 302.00
C 398.33 303.51 408.27 312.36 410.00 322.00 Z"/>
</g>
<g fill="None" fill-opacity="0.0" stroke="#298977" stroke-opacity="1.00" stroke-width="0.3"><path d="
M 224.00 368.00 
C 227.85 387.96 246.12 406.91 264.00 416.00
C 266.20 402.19 281.67 393.29 295.67 396.33 C 309.68 399.37 317.28 414.67 315.00 429.00
C 317.99 433.23 330.02 428.60 335.00 430.00 C 339.98 431.40 349.90 429.47 355.00 429.00
C 365.52 380.02 308.16 335.84 266.00 365.00
C 265.90 356.62 266.13 341.73 266.00 334.00 C 265.87 326.27 268.73 309.99 259.00 310.00 C 249.27 310.01 236.89 307.63 228.08 310.08 C 219.28 312.53 225.08 329.42 224.00 337.00 C 222.92 344.58 224.00 359.73 224.00 368.00 Z"/>
</g>
<g fill="None" fill-opacity="0.0" stroke="#288976" stroke-opacity="1.00" stroke-width="0.3"><path d="
M 420.00 360.00 
C 419.25 360.31 417.35 363.24 417.00 364.00
C 414.57 372.05 418.17 381.53 417.00 390.00 C 415.83 398.47 417.78 408.39 417.00 417.00
C 430.52 414.78 448.11 407.18 461.00 409.00
C 461.11 408.74 461.80 408.32 462.00 408.00
C 464.33 404.23 467.31 402.61 471.00 401.00
C 484.55 395.08 494.71 404.70 496.00 418.00
C 497.30 415.92 505.59 421.65 508.68 422.32 C 511.77 422.99 520.04 425.93 523.08 427.92 C 526.11 429.92 536.17 429.78 538.00 433.00
C 538.03 409.62 541.49 379.30 521.08 363.92 C 500.67 348.54 475.37 357.41 458.00 371.00
C 461.09 360.57 452.02 358.60 444.00 360.00 C 435.98 361.40 427.89 358.37 420.00 360.00 Z"/>
</g>
<g fill="None" fill-opacity="0.0" stroke="#288976" stroke-opacity="1.00" stroke-width="0.3"><path d="
M 547.00 437.00 
C 547.63 434.91 563.65 439.53 569.01 440.99 C 574.37 442.45 588.66 443.84 595.00 445.00
C 582.29 436.97 580.14 419.36 589.25 406.25 C 598.37 393.15 615.99 396.39 629.00 402.00
C 643.83 408.40 659.50 413.87 674.00 421.00
C 672.14 407.97 676.19 393.97 674.00 381.00
C 669.78 367.08 648.77 364.03 636.02 358.98 C 623.28 353.92 597.79 354.69 584.22 360.22 C 570.66 365.76 560.64 374.37 552.92 387.92 C 545.21 401.48 544.26 421.73 547.00 437.00 Z"/>
</g>
<g fill="None" fill-opacity="0.0" stroke="#288876" stroke-opacity="1.00" stroke-width="0.3"><path d="
M 683.00 424.00 
C 685.21 427.88 695.62 427.69 700.22 429.78 C 704.83 431.86 714.21 431.93 720.01 432.99 C 725.80 434.06 733.87 435.33 740.22 435.78 C 746.57 436.22 757.17 436.95 763.00 437.00
C 791.43 433.82 813.76 405.09 796.25 378.75 C 778.74 352.40 748.16 353.24 721.07 360.07 C 693.99 366.91 683.00 398.83 683.00 424.00
M 752.00 410.00 
C 750.88 410.66 750.48 410.66 749.00 411.00
C 742.17 412.58 730.74 413.56 726.10 406.90 C 721.46 400.24 730.46 390.66 738.01 391.01 C 745.55 391.36 755.30 386.07 761.75 394.25 C 768.20 402.43 759.41 407.95 752.00 410.00 Z"/>
</g>
<g fill="None" fill-opacity="0.0" stroke="#268875" stroke-opacity="1.00" stroke-width="0.3"><path d="
M 364.00 428.00 
C 377.95 425.01 392.46 423.53 406.00 419.00
C 406.00 402.15 408.80 382.58 406.00 366.00
C 402.46 354.35 384.87 361.31 373.00 360.00 C 361.14 358.69 363.72 379.73 364.00 390.00 C 364.28 400.27 364.00 417.13 364.00 428.00 Z"/>
</g>
<g fill="None" fill-opacity="0.0" stroke="#D9F0EB" stroke-opacity="1.00" stroke-width="0.3"><path d="
M 416.00 416.00 
C 416.00 407.69 415.28 398.19 416.00 390.00 C 416.72 381.81 413.71 371.02 417.00 364.00
C 417.35 363.24 419.25 360.31 420.00 360.00
C 418.67 360.00 417.33 360.00 416.00 360.00
C 415.70 368.16 413.34 379.79 415.00 388.00 C 416.66 396.21 411.23 409.56 416.00 416.00 Z"/>
</g>
<g fill="None" fill-opacity="0.0" stroke="#5F9F94" stroke-opacity="1.00" stroke-width="0.3"><path d="
M 416.00 416.00 
C 416.00 416.00 416.00 416.50 416.00 417.00
C 416.25 417.25 417.00 417.00 417.00 417.00
C 417.78 408.39 415.83 398.47 417.00 390.00 C 418.17 381.53 414.57 372.05 417.00 364.00
C 413.71 371.02 416.72 381.81 416.00 390.00 C 415.28 398.19 416.00 407.69 416.00 416.00 Z"/>
</g>
<g fill="None" fill-opacity="0.0" stroke="#92BBB3" stroke-opacity="1.00" stroke-width="0.3"><path d="
M 406.00 419.00 
C 406.00 419.50 406.00 420.00 406.00 420.00
C 406.25 420.25 407.00 420.00 407.00 420.00
C 407.00 403.60 410.60 381.17 406.00 366.00
C 408.80 382.58 406.00 402.15 406.00 419.00 Z"/>
</g>
<g fill="None" fill-opacity="0.0" stroke="#243639" stroke-opacity="1.00" stroke-width="0.3"><path d="
M 355.00 429.00 
C 349.90 429.47 339.98 431.40 335.00 430.00 C 330.02 428.60 317.99 433.23 315.00 429.00
C 312.83 442.67 296.79 451.05 283.33 447.67 C 269.87 444.29 261.72 430.30 264.00 416.00
C 246.12 406.91 227.85 387.96 224.00 368.00
C 224.00 387.60 224.72 411.87 224.00 431.00 C 223.28 450.13 220.84 471.16 239.32 477.68 C 257.81 484.19 272.53 489.82 290.98 488.98 C 309.43 488.14 322.68 482.76 335.75 471.75 C 348.83 460.75 354.13 444.99 355.00 429.00 Z"/>
</g>
<g fill="None" fill-opacity="0.0" stroke="#90B6B2" stroke-opacity="1.00" stroke-width="0.3"><path d="
M 674.00 421.00 
C 674.05 421.35 674.95 421.77 675.00 422.00
C 675.00 409.36 677.52 392.59 674.00 381.00
C 676.19 393.97 672.14 407.97 674.00 421.00 Z"/>
</g>
<g fill="None" fill-opacity="0.0" stroke="#C5E5DE" stroke-opacity="1.00" stroke-width="0.3"><path d="
M 749.00 411.00 
C 742.04 410.64 732.88 410.50 727.00 406.00
C 727.27 392.84 738.94 390.35 751.00 391.00 C 763.06 391.65 765.13 407.13 752.00 410.00
C 759.41 407.95 768.20 402.43 761.75 394.25 C 755.30 386.07 745.55 391.36 738.01 391.01 C 730.46 390.66 721.46 400.24 726.10 406.90 C 730.74 413.56 742.17 412.58 749.00 411.00 Z"/>
</g>
<g fill="None" fill-opacity="0.0" stroke="#E9E6E6" stroke-opacity="1.00" stroke-width="0.3"><path d="
M 749.00 411.00 
C 750.48 410.66 750.88 410.66 752.00 410.00
C 765.13 407.13 763.06 391.65 751.00 391.00 C 738.94 390.35 727.27 392.84 727.00 406.00
C 732.88 410.50 742.04 410.64 749.00 411.00 Z"/>
</g>
<g fill="None" fill-opacity="0.0" stroke="#E6E6E7" stroke-opacity="1.00" stroke-width="0.3"><path d="
M 264.00 416.00 
C 261.72 430.30 269.87 444.29 283.33 447.67 C 296.79 451.05 312.83 442.67 315.00 429.00
C 317.28 414.67 309.68 399.37 295.67 396.33 C 281.67 393.29 266.20 402.19 264.00 416.00 Z"/>
</g>
<g fill="None" fill-opacity="0.0" stroke="#E5E6E6" stroke-opacity="1.00" stroke-width="0.3"><path d="
M 595.00 445.00 
C 607.10 447.21 623.35 449.81 630.92 437.92 C 638.49 426.03 640.05 411.35 629.00 402.00
C 615.99 396.39 598.37 393.15 589.25 406.25 C 580.14 419.36 582.29 436.97 595.00 445.00 Z"/>
</g>
<g fill="None" fill-opacity="0.0" stroke="#D1F2EB" stroke-opacity="1.00" stroke-width="0.3"><path d="
M 462.00 408.00 
C 464.71 405.90 467.90 403.26 471.00 401.00
C 467.31 402.61 464.33 404.23 462.00 408.00 Z"/>
</g>
<g fill="None" fill-opacity="0.0" stroke="#253638" stroke-opacity="1.00" stroke-width="0.3"><path d="
M 595.00 445.00 
C 588.66 443.84 574.37 442.45 569.01 440.99 C 563.65 439.53 547.63 434.91 547.00 437.00
C 548.56 445.69 551.13 455.26 556.70 462.30 C 562.26 469.35 566.39 474.09 574.31 478.70 C 582.22 483.30 591.29 485.41 601.00 486.00 C 610.71 486.59 619.51 481.94 628.26 478.26 C 637.00 474.57 634.26 492.50 626.75 496.75 C 619.23 500.99 609.80 504.95 600.01 501.99 C 590.21 499.04 584.17 498.69 574.69 492.31 C 565.22 485.92 562.18 496.77 557.98 504.98 C 553.77 513.18 552.52 520.28 562.31 524.69 C 572.09 529.11 577.91 532.05 587.78 534.22 C 597.64 536.40 608.28 537.78 618.00 536.00 C 627.71 534.22 636.21 532.92 644.31 528.31 C 652.40 523.69 658.58 520.60 663.75 512.75 C 668.92 504.90 672.57 498.82 674.00 489.00 C 675.43 479.18 674.91 466.65 675.00 456.00 C 675.09 445.35 675.00 432.82 675.00 422.00
C 674.95 421.77 674.05 421.35 674.00 421.00
C 659.50 413.87 643.83 408.40 629.00 402.00
C 640.05 411.35 638.49 426.03 630.92 437.92 C 623.35 449.81 607.10 447.21 595.00 445.00 Z"/>
</g>
<g fill="None" fill-opacity="0.0" stroke="#253739" stroke-opacity="1.00" stroke-width="0.3"><path d="
M 417.00 417.00 
C 417.00 417.00 416.25 417.25 416.00 417.00
C 416.00 427.41 414.77 438.67 416.00 449.00 C 417.23 459.33 412.50 469.80 416.08 479.92 C 419.66 490.04 433.49 482.31 443.00 485.00 C 452.51 487.69 460.43 479.52 458.00 469.00 C 455.57 458.48 458.98 447.14 458.00 437.00 C 457.02 426.86 457.37 417.72 461.00 409.00
C 448.11 407.18 430.52 414.78 417.00 417.00 Z"/>
</g>
<g fill="None" fill-opacity="0.0" stroke="#243739" stroke-opacity="1.00" stroke-width="0.3"><path d="
M 496.00 418.00 
C 496.88 427.05 496.32 435.80 496.00 445.00 C 495.68 454.20 497.72 462.50 496.00 472.00 C 494.28 481.50 500.94 487.48 510.00 485.00 C 519.06 482.52 528.45 488.74 535.25 483.25 C 542.05 477.76 536.90 466.73 538.00 459.00 C 539.10 451.27 538.00 440.97 538.00 433.00
C 536.17 429.78 526.11 429.92 523.08 427.92 C 520.04 425.93 511.77 422.99 508.68 422.32 C 505.59 421.65 497.30 415.92 496.00 418.00 Z"/>
</g>
<g fill="None" fill-opacity="0.0" stroke="#233638" stroke-opacity="1.00" stroke-width="0.3"><path d="
M 364.00 428.00 
C 364.00 438.03 363.61 450.18 364.00 460.00 C 364.39 469.82 360.18 481.48 371.00 484.00
C 379.24 484.92 394.07 486.25 402.00 484.00
C 404.20 483.02 405.02 482.19 406.00 480.00
C 408.59 470.86 405.03 459.55 406.00 450.00 C 406.97 440.45 406.00 429.66 406.00 420.00
C 406.00 420.00 406.00 419.50 406.00 419.00
C 392.46 423.53 377.95 425.01 364.00 428.00 Z"/>
</g>
<g fill="None" fill-opacity="0.0" stroke="#828F8E" stroke-opacity="1.00" stroke-width="0.3"><path d="
M 406.00 480.00 
C 409.66 471.81 406.14 459.44 407.00 450.00 C 407.86 440.56 407.00 429.58 407.00 420.00
C 407.00 420.00 406.25 420.25 406.00 420.00
C 406.00 429.66 406.97 440.45 406.00 450.00 C 405.03 459.55 408.59 470.86 406.00 480.00 Z"/>
</g>
<g fill="None" fill-opacity="0.0" stroke="#253739" stroke-opacity="1.00" stroke-width="0.3"><path d="
M 763.00 437.00 
C 757.17 436.95 746.57 436.22 740.22 435.78 C 733.87 435.33 725.80 434.06 720.01 432.99 C 714.21 431.93 704.83 431.86 700.22 429.78 C 695.62 427.69 685.21 427.88 683.00 424.00
C 683.00 433.24 685.14 444.51 688.23 452.77 C 691.32 461.03 695.78 465.92 701.75 472.25 C 707.72 478.58 714.49 481.23 722.31 484.69 C 730.12 488.16 743.36 488.19 752.00 488.00 C 760.64 487.81 773.10 485.91 779.98 482.98 C 786.85 480.05 799.85 478.14 801.00 470.00 C 802.15 461.87 793.96 454.35 790.77 447.23 C 787.57 440.11 774.76 448.60 768.22 451.22 C 761.68 453.84 746.60 453.92 739.07 452.93 C 731.55 451.93 719.64 439.19 731.00 438.00 C 742.36 436.81 752.02 438.23 763.00 437.00 Z"/>
</g>
<g fill="None" fill-opacity="0.0" stroke="#868E8F" stroke-opacity="1.00" stroke-width="0.3"><path d="
M 402.00 484.00 
C 394.07 486.25 379.24 484.92 371.00 484.00
C 378.35 485.71 394.82 487.21 402.00 484.00 Z"/>
</g>
<g fill="None" fill-opacity="0.0" stroke="#253639" stroke-opacity="1.00" stroke-width="0.3"><path d="
M 407.00 549.00 
C 409.32 536.01 403.90 526.32 407.00 513.00 C 410.10 499.68 402.55 490.74 390.00 493.00 C 377.45 495.26 364.89 488.88 364.00 503.00 C 363.11 517.12 364.59 526.75 364.00 540.00 C 363.41 553.26 364.68 564.00 364.00 577.00 C 363.32 590.00 365.24 599.69 364.00 613.00 C 362.76 626.31 366.56 635.69 364.00 650.00 C 361.44 664.31 369.93 669.39 383.00 668.00 C 396.07 666.61 407.31 670.21 407.00 656.00 C 406.69 641.79 407.21 631.36 407.00 619.00 C 406.79 606.64 405.65 595.52 411.70 586.70 C 417.74 577.87 427.67 575.60 436.75 580.25 C 445.84 584.89 447.05 597.69 446.00 608.00 C 444.95 618.31 447.89 632.90 446.00 644.00 C 444.11 655.10 446.29 670.71 459.00 668.00 C 471.71 665.29 486.15 673.31 488.00 660.00 C 489.85 646.69 487.37 636.21 488.00 624.00 C 488.63 611.79 488.20 598.43 487.78 587.22 C 487.35 576.01 485.30 566.42 480.75 557.25 C 476.21 548.07 470.49 544.82 462.08 539.92 C 453.66 535.03 439.93 535.48 430.67 537.67 C 421.41 539.87 415.08 545.81 407.00 550.00 Z"/>
</g>
<g fill="None" fill-opacity="0.0" stroke="#899191" stroke-opacity="1.00" stroke-width="0.3"><path d="
M 296.00 536.00 
C 299.65 535.86 303.34 536.00 307.00 536.00
C 303.51 535.66 299.60 535.49 296.00 536.00 Z"/>
</g>
<g fill="None" fill-opacity="0.0" stroke="#808787" stroke-opacity="1.00" stroke-width="0.3"><path d="
M 700.00 536.00 
C 704.00 536.00 708.00 536.00 712.00 536.00
C 708.29 535.64 703.77 535.63 700.00 536.00 Z"/>
</g>
<g fill="None" fill-opacity="0.0" stroke="#253638" stroke-opacity="1.00" stroke-width="0.3"><path d="
M 307.00 536.00 
C 303.34 536.00 299.65 535.86 296.00 536.00
C 286.43 536.37 274.06 538.48 266.25 544.25 C 258.43 550.02 252.60 557.64 251.33 567.33 C 250.06 577.02 250.05 590.45 255.75 599.25 C 261.44 608.05 267.68 611.03 277.78 615.22 C 287.87 619.41 294.81 618.25 306.77 623.23 C 318.74 628.21 309.77 640.14 297.01 636.99 C 284.25 633.85 280.60 632.91 268.69 628.31 C 256.79 623.70 258.33 639.15 252.78 647.78 C 247.23 656.40 255.22 664.60 265.98 666.02 C 276.74 667.45 287.79 671.52 299.00 671.00 C 310.21 670.48 321.94 669.92 331.31 665.31 C 340.67 660.69 345.56 656.36 350.69 647.70 C 355.83 639.03 355.64 624.97 352.98 616.03 C 350.31 607.08 344.85 599.11 336.70 595.31 C 328.54 591.50 316.61 585.94 308.07 585.93 C 299.54 585.91 283.88 576.59 294.78 571.78 C 305.67 566.97 315.01 570.19 325.92 575.08 C 336.84 579.96 340.63 576.21 344.69 564.69 C 348.75 553.18 350.83 545.51 338.07 541.93 C 325.32 538.34 320.08 536.00 307.00 536.00 Z"/>
</g>
<g fill="None" fill-opacity="0.0" stroke="#253639" stroke-opacity="1.00" stroke-width="0.3"><path d="
M 682.00 710.00 
C 683.18 703.00 680.69 693.83 682.00 687.00 C 683.31 680.17 679.23 670.42 683.00 665.00
C 686.13 660.50 699.55 671.79 707.00 670.00 C 714.45 668.21 729.09 670.94 736.31 666.31 C 743.52 661.67 750.11 659.61 755.75 652.75 C 761.39 645.89 765.44 641.00 768.68 632.68 C 771.92 624.36 773.73 614.25 774.00 605.00 C 774.27 595.75 772.38 584.90 769.32 576.68 C 766.26 568.45 763.09 562.27 757.25 555.75 C 751.40 549.23 746.04 545.36 738.23 541.77 C 730.42 538.18 721.03 536.00 712.00 536.00
C 708.00 536.00 704.00 536.00 700.00 536.00
C 688.90 536.00 674.65 538.45 664.68 541.68 C 654.71 544.91 640.07 545.12 640.00 558.00 C 639.93 570.88 640.00 586.11 640.00 599.00 C 640.00 611.89 639.93 627.62 640.00 640.00 C 640.07 652.38 639.82 669.99 640.00 681.00 C 640.18 692.01 636.60 713.82 647.00 715.00 C 657.40 716.18 679.38 718.65 682.00 710.00
M 713.00 577.00 
C 745.14 583.66 733.96 637.01 700.93 629.07 C 667.90 621.14 677.41 569.63 713.00 577.00 Z"/>
</g>
<g fill="None" fill-opacity="0.0" stroke="#253639" stroke-opacity="1.00" stroke-width="0.3"><path d="
M 630.00 610.00 
C 630.16 605.71 630.16 601.29 630.00 597.00
C 628.11 547.55 566.05 521.02 526.75 547.75 C 487.45 574.48 486.91 635.82 527.75 661.25 C 568.59 686.67 628.09 660.08 630.00 610.00
M 546.00 571.00 
C 545.80 576.29 547.26 583.63 545.00 588.00
C 539.81 598.04 536.54 579.26 538.00 573.00 C 539.46 566.74 539.24 556.44 545.75 551.75 C 552.26 547.07 558.10 542.60 566.22 544.78 C 574.34 546.96 578.88 546.39 584.75 554.25 C 590.62 562.11 587.30 568.15 589.00 579.00 C 590.70 589.85 582.27 595.03 582.00 583.00 C 581.73 570.97 583.54 566.84 578.23 558.77 C 572.91 550.70 565.08 551.96 557.33 553.33 C 549.58 554.69 546.26 564.25 546.00 571.00 Z"/>
</g>
<g fill="None" fill-opacity="0.0" stroke="#DCDEDE" stroke-opacity="1.00" stroke-width="0.3"><path d="
M 545.00 588.00 
C 546.50 583.57 545.40 575.21 546.00 571.00
C 546.26 564.25 549.58 554.69 557.33 553.33 C 565.08 551.96 572.91 550.70 578.23 558.77 C 583.54 566.84 581.73 570.97 582.00 583.00 C 582.27 595.03 590.70 589.85 589.00 579.00 C 587.30 568.15 590.62 562.11 584.75 554.25 C 578.88 546.39 574.34 546.96 566.22 544.78 C 558.10 542.60 552.26 547.07 545.75 551.75 C 539.24 556.44 539.46 566.74 538.00 573.00 C 536.54 579.26 539.81 598.04 545.00 588.00 Z"/>
</g>
<g fill="None" fill-opacity="0.0" stroke="#8A9294" stroke-opacity="1.00" stroke-width="0.3"><path d="
M 545.00 588.00 
C 547.26 583.63 545.80 576.29 546.00 571.00
C 545.40 575.21 546.50 583.57 545.00 588.00 Z"/>
</g>
<g fill="None" fill-opacity="0.0" stroke="#E6E5E6" stroke-opacity="1.00" stroke-width="0.3"><path d="
M 713.00 577.00 
C 677.41 569.63 667.90 621.14 700.93 629.07 C 733.96 637.01 745.14 583.66 713.00 577.00 Z"/>
</g>
<g fill="None" fill-opacity="0.0" stroke="#7F8A89" stroke-opacity="1.00" stroke-width="0.3"><path d="
M 630.00 610.00 
C 630.60 605.79 630.61 601.27 630.00 597.00
C 630.16 601.29 630.16 605.71 630.00 610.00 Z"/>
</g>
<g fill="None" fill-opacity="0.0" stroke="#828C8D" stroke-opacity="1.00" stroke-width="0.3"><path d="
M 682.00 710.00 
C 683.94 703.61 681.75 694.89 683.00 688.00 C 684.25 681.11 680.18 671.24 683.00 665.00
C 679.23 670.42 683.31 680.17 682.00 687.00 C 680.69 693.83 683.18 703.00 682.00 710.00 Z"/>
</g>
<g fill="#E9E9E9" fill-opacity="1.00" stroke="None">
<path d="
M 0.00 1024.00 
L 1024.00 1024.00
L 1024.00 0.00
L 0.00 0.00
L 0.00 1024.00
M 410.00 322.00 
C 411.23 344.66 386.55 362.02 368.25 344.75 C 349.95 327.48 365.64 300.41 389.00 302.00
C 399.93 302.74 409.38 310.49 410.00 322.00
M 355.00 429.00 
C 354.13 444.99 348.83 460.75 335.75 471.75 C 322.68 482.76 309.43 488.14 290.98 488.98 C 272.53 489.82 257.81 484.19 239.32 477.68 C 220.84 471.16 223.28 450.13 224.00 431.00 C 224.72 411.87 224.00 387.60 224.00 368.00
C 224.00 359.73 222.92 344.58 224.00 337.00 C 225.08 329.42 219.28 312.53 228.08 310.08 C 236.89 307.63 249.27 310.01 259.00 310.00 C 268.73 309.99 265.87 326.27 266.00 334.00 C 266.13 341.73 265.90 356.62 266.00 365.00
C 308.16 335.84 365.52 380.02 355.00 429.00
M 538.00 433.00 
C 538.00 440.97 539.10 451.27 538.00 459.00 C 536.90 466.73 542.05 477.76 535.25 483.25 C 528.45 488.74 519.06 482.52 510.00 485.00 C 500.94 487.48 494.28 481.50 496.00 472.00 C 497.72 462.50 495.68 454.20 496.00 445.00 C 496.32 435.80 496.88 427.05 496.00 418.00
C 494.71 404.70 484.55 395.08 471.00 401.00
C 467.90 403.26 464.71 405.90 462.00 408.00
C 461.80 408.32 461.11 408.74 461.00 409.00
C 457.37 417.72 457.02 426.86 458.00 437.00 C 458.98 447.14 455.57 458.48 458.00 469.00 C 460.43 479.52 452.51 487.69 443.00 485.00 C 433.49 482.31 419.66 490.04 416.08 479.92 C 412.50 469.80 417.23 459.33 416.00 449.00 C 414.77 438.67 416.00 427.41 416.00 417.00
C 416.00 416.50 416.00 416.00 416.00 416.00
C 411.23 409.56 416.66 396.21 415.00 388.00 C 413.34 379.79 415.70 368.16 416.00 360.00
C 417.33 360.00 418.67 360.00 420.00 360.00
C 427.89 358.37 435.98 361.40 444.00 360.00 C 452.02 358.60 461.09 360.57 458.00 371.00
C 475.37 357.41 500.67 348.54 521.08 363.92 C 541.49 379.30 538.03 409.62 538.00 433.00
M 674.00 381.00 
C 677.52 392.59 675.00 409.36 675.00 422.00
C 675.00 432.82 675.09 445.35 675.00 456.00 C 674.91 466.65 675.43 479.18 674.00 489.00 C 672.57 498.82 668.92 504.90 663.75 512.75 C 658.58 520.60 652.40 523.69 644.31 528.31 C 636.21 532.92 627.71 534.22 618.00 536.00 C 608.28 537.78 597.64 536.40 587.78 534.22 C 577.91 532.05 572.09 529.11 562.31 524.69 C 552.52 520.28 553.77 513.18 557.98 504.98 C 562.18 496.77 565.22 485.92 574.69 492.31 C 584.17 498.69 590.21 499.04 600.01 501.99 C 609.80 504.95 619.23 500.99 626.75 496.75 C 634.26 492.50 637.00 474.57 628.26 478.26 C 619.51 481.94 610.71 486.59 601.00 486.00 C 591.29 485.41 582.22 483.30 574.31 478.70 C 566.39 474.09 562.26 469.35 556.70 462.30 C 551.13 455.26 548.56 445.69 547.00 437.00
C 544.26 421.73 545.21 401.48 552.92 387.92 C 560.64 374.37 570.66 365.76 584.22 360.22 C 597.79 354.69 623.28 353.92 636.02 358.98 C 648.77 364.03 669.78 367.08 674.00 381.00
M 763.00 437.00 
C 752.02 438.23 742.36 436.81 731.00 438.00 C 719.64 439.19 731.55 451.93 739.07 452.93 C 746.60 453.92 761.68 453.84 768.22 451.22 C 774.76 448.60 787.57 440.11 790.77 447.23 C 793.96 454.35 802.15 461.87 801.00 470.00 C 799.85 478.14 786.85 480.05 779.98 482.98 C 773.10 485.91 760.64 487.81 752.00 488.00 C 743.36 488.19 730.12 488.16 722.31 484.69 C 714.49 481.23 707.72 478.58 701.75 472.25 C 695.78 465.92 691.32 461.03 688.23 452.77 C 685.14 444.51 683.00 433.24 683.00 424.00
C 683.00 398.83 693.99 366.91 721.07 360.07 C 748.16 353.24 778.74 352.40 796.25 378.75 C 813.76 405.09 791.43 433.82 763.00 437.00
M 406.00 366.00 
C 410.60 381.17 407.00 403.60 407.00 420.00
C 407.00 429.58 407.86 440.56 407.00 450.00 C 406.14 459.44 409.66 471.81 406.00 480.00
C 405.02 482.19 404.20 483.02 402.00 484.00
C 394.82 487.21 378.35 485.71 371.00 484.00
C 360.18 481.48 364.39 469.82 364.00 460.00 C 363.61 450.18 364.00 438.03 364.00 428.00
C 364.00 417.13 364.28 400.27 364.00 390.00 C 363.72 379.73 361.14 358.69 373.00 360.00 C 384.87 361.31 402.46 354.35 406.00 366.00
M 407.00 550.00 
C 415.08 545.81 421.41 539.87 430.67 537.67 C 439.93 535.48 453.66 535.03 462.08 539.92 C 470.49 544.82 476.21 548.07 480.75 557.25 C 485.30 566.42 487.35 576.01 487.78 587.22 C 488.20 598.43 488.63 611.79 488.00 624.00 C 487.37 636.21 489.85 646.69 488.00 660.00 C 486.15 673.31 471.71 665.29 459.00 668.00 C 446.29 670.71 444.11 655.10 446.00 644.00 C 447.89 632.90 444.95 618.31 446.00 608.00 C 447.05 597.69 445.84 584.89 436.75 580.25 C 427.67 575.60 417.74 577.87 411.70 586.70 C 405.65 595.52 406.79 606.64 407.00 619.00 C 407.21 631.36 406.69 641.79 407.00 656.00 C 407.31 670.21 396.07 666.61 383.00 668.00 C 369.93 669.39 361.44 664.31 364.00 650.00 C 366.56 635.69 362.76 626.31 364.00 613.00 C 365.24 599.69 363.32 590.00 364.00 577.00 C 364.68 564.00 363.41 553.26 364.00 540.00 C 364.59 526.75 363.11 517.12 364.00 503.00 C 364.89 488.88 377.45 495.26 390.00 493.00 C 402.55 490.74 410.10 499.68 407.00 513.00 C 403.90 526.32 409.32 536.01 407.00 549.00
M 307.00 536.00 
C 320.08 536.00 325.32 538.34 338.07 541.93 C 350.83 545.51 348.75 553.18 344.69 564.69 C 340.63 576.21 336.84 579.96 325.92 575.08 C 315.01 570.19 305.67 566.97 294.78 571.78 C 283.88 576.59 299.54 585.91 308.07 585.93 C 316.61 585.94 328.54 591.50 336.70 595.31 C 344.85 599.11 350.31 607.08 352.98 616.03 C 355.64 624.97 355.83 639.03 350.69 647.70 C 345.56 656.36 340.67 660.69 331.31 665.31 C 321.94 669.92 310.21 670.48 299.00 671.00 C 287.79 671.52 276.74 667.45 265.98 666.02 C 255.22 664.60 247.23 656.40 252.78 647.78 C 258.33 639.15 256.79 623.70 268.69 628.31 C 280.60 632.91 284.25 633.85 297.01 636.99 C 309.77 640.14 318.74 628.21 306.77 623.23 C 294.81 618.25 287.87 619.41 277.78 615.22 C 267.68 611.03 261.44 608.05 255.75 599.25 C 250.05 590.45 250.06 577.02 251.33 567.33 C 252.60 557.64 258.43 550.02 266.25 544.25 C 274.06 538.48 286.43 536.37 296.00 536.00
C 299.60 535.49 303.51 535.66 307.00 536.00
M 712.00 536.00 
C 721.03 536.00 730.42 538.18 738.23 541.77 C 746.04 545.36 751.40 549.23 757.25 555.75 C 763.09 562.27 766.26 568.45 769.32 576.68 C 772.38 584.90 774.27 595.75 774.00 605.00 C 773.73 614.25 771.92 624.36 768.68 632.68 C 765.44 641.00 761.39 645.89 755.75 652.75 C 750.11 659.61 743.52 661.67 736.31 666.31 C 729.09 670.94 714.45 668.21 707.00 670.00 C 699.55 671.79 686.13 660.50 683.00 665.00
C 680.18 671.24 684.25 681.11 683.00 688.00 C 681.75 694.89 683.94 703.61 682.00 710.00
C 679.38 718.65 657.40 716.18 647.00 715.00 C 636.60 713.82 640.18 692.01 640.00 681.00 C 639.82 669.99 640.07 652.38 640.00 640.00 C 639.93 627.62 640.00 611.89 640.00 599.00 C 640.00 586.11 639.93 570.88 640.00 558.00 C 640.07 545.12 654.71 544.91 664.68 541.68 C 674.65 538.45 688.90 536.00 700.00 536.00
C 703.77 535.63 708.29 535.64 712.00 536.00
M 630.00 597.00 
C 630.61 601.27 630.60 605.79 630.00 610.00
C 628.09 660.08 568.59 686.67 527.75 661.25 C 486.91 635.82 487.45 574.48 526.75 547.75 C 566.05 521.02 628.11 547.55 630.00 597.00 Z"/>
</g>
<g fill="#298A77" fill-opacity="1.00" stroke="None">
<path d="
M 410.00 322.00 
C 408.27 312.36 398.33 303.51 389.00 302.00
C 365.64 300.41 349.95 327.48 368.25 344.75 C 386.55 362.02 411.23 344.66 410.00 322.00 Z"/>
</g>
<g fill="#CCEDE7" fill-opacity="1.00" stroke="None">
<path d="
M 410.00 322.00 
C 409.38 310.49 399.93 302.74 389.00 302.00
C 398.33 303.51 408.27 312.36 410.00 322.00 Z"/>
</g>
<g fill="#298977" fill-opacity="1.00" stroke="None">
<path d="
M 224.00 368.00 
C 227.85 387.96 246.12 406.91 264.00 416.00
C 266.20 402.19 281.67 393.29 295.67 396.33 C 309.68 399.37 317.28 414.67 315.00 429.00
C 317.99 433.23 330.02 428.60 335.00 430.00 C 339.98 431.40 349.90 429.47 355.00 429.00
C 365.52 380.02 308.16 335.84 266.00 365.00
C 265.90 356.62 266.13 341.73 266.00 334.00 C 265.87 326.27 268.73 309.99 259.00 310.00 C 249.27 310.01 236.89 307.63 228.08 310.08 C 219.28 312.53 225.08 329.42 224.00 337.00 C 222.92 344.58 224.00 359.73 224.00 368.00 Z"/>
</g>
<g fill="#288976" fill-opacity="1.00" stroke="None">
<path d="
M 420.00 360.00 
C 419.25 360.31 417.35 363.24 417.00 364.00
C 414.57 372.05 418.17 381.53 417.00 390.00 C 415.83 398.47 417.78 408.39 417.00 417.00
C 430.52 414.78 448.11 407.18 461.00 409.00
C 461.11 408.74 461.80 408.32 462.00 408.00
C 464.33 404.23 467.31 402.61 471.00 401.00
C 484.55 395.08 494.71 404.70 496.00 418.00
C 497.30 415.92 505.59 421.65 508.68 422.32 C 511.77 422.99 520.04 425.93 523.08 427.92 C 526.11 429.92 536.17 429.78 538.00 433.00
C 538.03 409.62 541.49 379.30 521.08 363.92 C 500.67 348.54 475.37 357.41 458.00 371.00
C 461.09 360.57 452.02 358.60 444.00 360.00 C 435.98 361.40 427.89 358.37 420.00 360.00 Z"/>
</g>
<g fill="#288976" fill-opacity="1.00" stroke="None">
<path d="
M 547.00 437.00 
C 547.63 434.91 563.65 439.53 569.01 440.99 C 574.37 442.45 588.66 443.84 595.00 445.00
C 582.29 436.97 580.14 419.36 589.25 406.25 C 598.37 393.15 615.99 396.39 629.00 402.00
C 643.83 408.40 659.50 413.87 674.00 421.00
C 672.14 407.97 676.19 393.97 674.00 381.00
C 669.78 367.08 648.77 364.03 636.02 358.98 C 623.28 353.92 597.79 354.69 584.22 360.22 C 570.66 365.76 560.64 374.37 552.92 387.92 C 545.21 401.48 544.26 421.73 547.00 437.00 Z"/>
</g>
<g fill="#288876" fill-opacity="1.00" stroke="None">
<path d="
M 683.00 424.00 
C 685.21 427.88 695.62 427.69 700.22 429.78 C 704.83 431.86 714.21 431.93 720.01 432.99 C 725.80 434.06 733.87 435.33 740.22 435.78 C 746.57 436.22 757.17 436.95 763.00 437.00
C 791.43 433.82 813.76 405.09 796.25 378.75 C 778.74 352.40 748.16 353.24 721.07 360.07 C 693.99 366.91 683.00 398.83 683.00 424.00
M 752.00 410.00 
C 750.88 410.66 750.48 410.66 749.00 411.00
C 742.17 412.58 730.74 413.56 726.10 406.90 C 721.46 400.24 730.46 390.66 738.01 391.01 C 745.55 391.36 755.30 386.07 761.75 394.25 C 768.20 402.43 759.41 407.95 752.00 410.00 Z"/>
</g>
<g fill="#268875" fill-opacity="1.00" stroke="None">
<path d="
M 364.00 428.00 
C 377.95 425.01 392.46 423.53 406.00 419.00
C 406.00 402.15 408.80 382.58 406.00 366.00
C 402.46 354.35 384.87 361.31 373.00 360.00 C 361.14 358.69 363.72 379.73 364.00 390.00 C 364.28 400.27 364.00 417.13 364.00 428.00 Z"/>
</g>
<g fill="#D9F0EB" fill-opacity="1.00" stroke="None">
<path d="
M 416.00 416.00 
C 416.00 407.69 415.28 398.19 416.00 390.00 C 416.72 381.81 413.71 371.02 417.00 364.00
C 417.35 363.24 419.25 360.31 420.00 360.00
C 418.67 360.00 417.33 360.00 416.00 360.00
C 415.70 368.16 413.34 379.79 415.00 388.00 C 416.66 396.21 411.23 409.56 416.00 416.00 Z"/>
</g>
<g fill="#5F9F94" fill-opacity="1.00" stroke="None">
<path d="
M 416.00 416.00 
C 416.00 416.00 416.00 416.50 416.00 417.00
C 416.25 417.25 417.00 417.00 417.00 417.00
C 417.78 408.39 415.83 398.47 417.00 390.00 C 418.17 381.53 414.57 372.05 417.00 364.00
C 413.71 371.02 416.72 381.81 416.00 390.00 C 415.28 398.19 416.00 407.69 416.00 416.00 Z"/>
</g>
<g fill="#92BBB3" fill-opacity="1.00" stroke="None">
<path d="
M 406.00 419.00 
C 406.00 419.50 406.00 420.00 406.00 420.00
C 406.25 420.25 407.00 420.00 407.00 420.00
C 407.00 403.60 410.60 381.17 406.00 366.00
C 408.80 382.58 406.00 402.15 406.00 419.00 Z"/>
</g>
<g fill="#243639" fill-opacity="1.00" stroke="None">
<path d="
M 355.00 429.00 
C 349.90 429.47 339.98 431.40 335.00 430.00 C 330.02 428.60 317.99 433.23 315.00 429.00
C 312.83 442.67 296.79 451.05 283.33 447.67 C 269.87 444.29 261.72 430.30 264.00 416.00
C 246.12 406.91 227.85 387.96 224.00 368.00
C 224.00 387.60 224.72 411.87 224.00 431.00 C 223.28 450.13 220.84 471.16 239.32 477.68 C 257.81 484.19 272.53 489.82 290.98 488.98 C 309.43 488.14 322.68 482.76 335.75 471.75 C 348.83 460.75 354.13 444.99 355.00 429.00 Z"/>
</g>
<g fill="#90B6B2" fill-opacity="1.00" stroke="None">
<path d="
M 674.00 421.00 
C 674.05 421.35 674.95 421.77 675.00 422.00
C 675.00 409.36 677.52 392.59 674.00 381.00
C 676.19 393.97 672.14 407.97 674.00 421.00 Z"/>
</g>
<g fill="#C5E5DE" fill-opacity="1.00" stroke="None">
<path d="
M 749.00 411.00 
C 742.04 410.64 732.88 410.50 727.00 406.00
C 727.27 392.84 738.94 390.35 751.00 391.00 C 763.06 391.65 765.13 407.13 752.00 410.00
C 759.41 407.95 768.20 402.43 761.75 394.25 C 755.30 386.07 745.55 391.36 738.01 391.01 C 730.46 390.66 721.46 400.24 726.10 406.90 C 730.74 413.56 742.17 412.58 749.00 411.00 Z"/>
</g>
<g fill="#E9E6E6" fill-opacity="1.00" stroke="None">
<path d="
M 749.00 411.00 
C 750.48 410.66 750.88 410.66 752.00 410.00
C 765.13 407.13 763.06 391.65 751.00 391.00 C 738.94 390.35 727.27 392.84 727.00 406.00
C 732.88 410.50 742.04 410.64 749.00 411.00 Z"/>
</g>
<g fill="#E6E6E7" fill-opacity="1.00" stroke="None">
<path d="
M 264.00 416.00 
C 261.72 430.30 269.87 444.29 283.33 447.67 C 296.79 451.05 312.83 442.67 315.00 429.00
C 317.28 414.67 309.68 399.37 295.67 396.33 C 281.67 393.29 266.20 402.19 264.00 416.00 Z"/>
</g>
<g fill="#E5E6E6" fill-opacity="1.00" stroke="None">
<path d="
M 595.00 445.00 
C 607.10 447.21 623.35 449.81 630.92 437.92 C 638.49 426.03 640.05 411.35 629.00 402.00
C 615.99 396.39 598.37 393.15 589.25 406.25 C 580.14 419.36 582.29 436.97 595.00 445.00 Z"/>
</g>
<g fill="#D1F2EB" fill-opacity="1.00" stroke="None">
<path d="
M 462.00 408.00 
C 464.71 405.90 467.90 403.26 471.00 401.00
C 467.31 402.61 464.33 404.23 462.00 408.00 Z"/>
</g>
<g fill="#253638" fill-opacity="1.00" stroke="None">
<path d="
M 595.00 445.00 
C 588.66 443.84 574.37 442.45 569.01 440.99 C 563.65 439.53 547.63 434.91 547.00 437.00
C 548.56 445.69 551.13 455.26 556.70 462.30 C 562.26 469.35 566.39 474.09 574.31 478.70 C 582.22 483.30 591.29 485.41 601.00 486.00 C 610.71 486.59 619.51 481.94 628.26 478.26 C 637.00 474.57 634.26 492.50 626.75 496.75 C 619.23 500.99 609.80 504.95 600.01 501.99 C 590.21 499.04 584.17 498.69 574.69 492.31 C 565.22 485.92 562.18 496.77 557.98 504.98 C 553.77 513.18 552.52 520.28 562.31 524.69 C 572.09 529.11 577.91 532.05 587.78 534.22 C 597.64 536.40 608.28 537.78 618.00 536.00 C 627.71 534.22 636.21 532.92 644.31 528.31 C 652.40 523.69 658.58 520.60 663.75 512.75 C 668.92 504.90 672.57 498.82 674.00 489.00 C 675.43 479.18 674.91 466.65 675.00 456.00 C 675.09 445.35 675.00 432.82 675.00 422.00
C 674.95 421.77 674.05 421.35 674.00 421.00
C 659.50 413.87 643.83 408.40 629.00 402.00
C 640.05 411.35 638.49 426.03 630.92 437.92 C 623.35 449.81 607.10 447.21 595.00 445.00 Z"/>
</g>
<g fill="#253739" fill-opacity="1.00" stroke="None">
<path d="
M 417.00 417.00 
C 417.00 417.00 416.25 417.25 416.00 417.00
C 416.00 427.41 414.77 438.67 416.00 449.00 C 417.23 459.33 412.50 469.80 416.08 479.92 C 419.66 490.04 433.49 482.31 443.00 485.00 C 452.51 487.69 460.43 479.52 458.00 469.00 C 455.57 458.48 458.98 447.14 458.00 437.00 C 457.02 426.86 457.37 417.72 461.00 409.00
C 448.11 407.18 430.52 414.78 417.00 417.00 Z"/>
</g>
<g fill="#243739" fill-opacity="1.00" stroke="None">
<path d="
M 496.00 418.00 
C 496.88 427.05 496.32 435.80 496.00 445.00 C 495.68 454.20 497.72 462.50 496.00 472.00 C 494.28 481.50 500.94 487.48 510.00 485.00 C 519.06 482.52 528.45 488.74 535.25 483.25 C 542.05 477.76 536.90 466.73 538.00 459.00 C 539.10 451.27 538.00 440.97 538.00 433.00
C 536.17 429.78 526.11 429.92 523.08 427.92 C 520.04 425.93 511.77 422.99 508.68 422.32 C 505.59 421.65 497.30 415.92 496.00 418.00 Z"/>
</g>
<g fill="#233638" fill-opacity="1.00" stroke="None">
<path d="
M 364.00 428.00 
C 364.00 438.03 363.61 450.18 364.00 460.00 C 364.39 469.82 360.18 481.48 371.00 484.00
C 379.24 484.92 394.07 486.25 402.00 484.00
C 404.20 483.02 405.02 482.19 406.00 480.00
C 408.59 470.86 405.03 459.55 406.00 450.00 C 406.97 440.45 406.00 429.66 406.00 420.00
C 406.00 420.00 406.00 419.50 406.00 419.00
C 392.46 423.53 377.95 425.01 364.00 428.00 Z"/>
</g>
<g fill="#828F8E" fill-opacity="1.00" stroke="None">
<path d="
M 406.00 480.00 
C 409.66 471.81 406.14 459.44 407.00 450.00 C 407.86 440.56 407.00 429.58 407.00 420.00
C 407.00 420.00 406.25 420.25 406.00 420.00
C 406.00 429.66 406.97 440.45 406.00 450.00 C 405.03 459.55 408.59 470.86 406.00 480.00 Z"/>
</g>
<g fill="#253739" fill-opacity="1.00" stroke="None">
<path d="
M 763.00 437.00 
C 757.17 436.95 746.57 436.22 740.22 435.78 C 733.87 435.33 725.80 434.06 720.01 432.99 C 714.21 431.93 704.83 431.86 700.22 429.78 C 695.62 427.69 685.21 427.88 683.00 424.00
C 683.00 433.24 685.14 444.51 688.23 452.77 C 691.32 461.03 695.78 465.92 701.75 472.25 C 707.72 478.58 714.49 481.23 722.31 484.69 C 730.12 488.16 743.36 488.19 752.00 488.00 C 760.64 487.81 773.10 485.91 779.98 482.98 C 786.85 480.05 799.85 478.14 801.00 470.00 C 802.15 461.87 793.96 454.35 790.77 447.23 C 787.57 440.11 774.76 448.60 768.22 451.22 C 761.68 453.84 746.60 453.92 739.07 452.93 C 731.55 451.93 719.64 439.19 731.00 438.00 C 742.36 436.81 752.02 438.23 763.00 437.00 Z"/>
</g>
<g fill="#868E8F" fill-opacity="1.00" stroke="None">
<path d="
M 402.00 484.00 
C 394.07 486.25 379.24 484.92 371.00 484.00
C 378.35 485.71 394.82 487.21 402.00 484.00 Z"/>
</g>
<g fill="#253639" fill-opacity="1.00" stroke="None">
<path d="
M 407.00 549.00 
C 409.32 536.01 403.90 526.32 407.00 513.00 C 410.10 499.68 402.55 490.74 390.00 493.00 C 377.45 495.26 364.89 488.88 364.00 503.00 C 363.11 517.12 364.59 526.75 364.00 540.00 C 363.41 553.26 364.68 564.00 364.00 577.00 C 363.32 590.00 365.24 599.69 364.00 613.00 C 362.76 626.31 366.56 635.69 364.00 650.00 C 361.44 664.31 369.93 669.39 383.00 668.00 C 396.07 666.61 407.31 670.21 407.00 656.00 C 406.69 641.79 407.21 631.36 407.00 619.00 C 406.79 606.64 405.65 595.52 411.70 586.70 C 417.74 577.87 427.67 575.60 436.75 580.25 C 445.84 584.89 447.05 597.69 446.00 608.00 C 444.95 618.31 447.89 632.90 446.00 644.00 C 444.11 655.10 446.29 670.71 459.00 668.00 C 471.71 665.29 486.15 673.31 488.00 660.00 C 489.85 646.69 487.37 636.21 488.00 624.00 C 488.63 611.79 488.20 598.43 487.78 587.22 C 487.35 576.01 485.30 566.42 480.75 557.25 C 476.21 548.07 470.49 544.82 462.08 539.92 C 453.66 535.03 439.93 535.48 430.67 537.67 C 421.41 539.87 415.08 545.81 407.00 550.00 Z"/>
</g>
<g fill="#899191" fill-opacity="1.00" stroke="None">
<path d="
M 296.00 536.00 
C 299.65 535.86 303.34 536.00 307.00 536.00
C 303.51 535.66 299.60 535.49 296.00 536.00 Z"/>
</g>
<g fill="#808787" fill-opacity="1.00" stroke="None">
<path d="
M 700.00 536.00 
C 704.00 536.00 708.00 536.00 712.00 536.00
C 708.29 535.64 703.77 535.63 700.00 536.00 Z"/>
</g>
<g fill="#253638" fill-opacity="1.00" stroke="None">
<path d="
M 307.00 536.00 
C 303.34 536.00 299.65 535.86 296.00 536.00
C 286.43 536.37 274.06 538.48 266.25 544.25 C 258.43 550.02 252.60 557.64 251.33 567.33 C 250.06 577.02 250.05 590.45 255.75 599.25 C 261.44 608.05 267.68 611.03 277.78 615.22 C 287.87 619.41 294.81 618.25 306.77 623.23 C 318.74 628.21 309.77 640.14 297.01 636.99 C 284.25 633.85 280.60 632.91 268.69 628.31 C 256.79 623.70 258.33 639.15 252.78 647.78 C 247.23 656.40 255.22 664.60 265.98 666.02 C 276.74 667.45 287.79 671.52 299.00 671.00 C 310.21 670.48 321.94 669.92 331.31 665.31 C 340.67 660.69 345.56 656.36 350.69 647.70 C 355.83 639.03 355.64 624.97 352.98 616.03 C 350.31 607.08 344.85 599.11 336.70 595.31 C 328.54 591.50 316.61 585.94 308.07 585.93 C 299.54 585.91 283.88 576.59 294.78 571.78 C 305.67 566.97 315.01 570.19 325.92 575.08 C 336.84 579.96 340.63 576.21 344.69 564.69 C 348.75 553.18 350.83 545.51 338.07 541.93 C 325.32 538.34 320.08 536.00 307.00 536.00 Z"/>
</g>
<g fill="#253639" fill-opacity="1.00" stroke="None">
<path d="
M 682.00 710.00 
C 683.18 703.00 680.69 693.83 682.00 687.00 C 683.31 680.17 679.23 670.42 683.00 665.00
C 686.13 660.50 699.55 671.79 707.00 670.00 C 714.45 668.21 729.09 670.94 736.31 666.31 C 743.52 661.67 750.11 659.61 755.75 652.75 C 761.39 645.89 765.44 641.00 768.68 632.68 C 771.92 624.36 773.73 614.25 774.00 605.00 C 774.27 595.75 772.38 584.90 769.32 576.68 C 766.26 568.45 763.09 562.27 757.25 555.75 C 751.40 549.23 746.04 545.36 738.23 541.77 C 730.42 538.18 721.03 536.00 712.00 536.00
C 708.00 536.00 704.00 536.00 700.00 536.00
C 688.90 536.00 674.65 538.45 664.68 541.68 C 654.71 544.91 640.07 545.12 640.00 558.00 C 639.93 570.88 640.00 586.11 640.00 599.00 C 640.00 611.89 639.93 627.62 640.00 640.00 C 640.07 652.38 639.82 669.99 640.00 681.00 C 640.18 692.01 636.60 713.82 647.00 715.00 C 657.40 716.18 679.38 718.65 682.00 710.00
M 713.00 577.00 
C 745.14 583.66 733.96 637.01 700.93 629.07 C 667.90 621.14 677.41 569.63 713.00 577.00 Z"/>
</g>
<g fill="#253639" fill-opacity="1.00" stroke="None">
<path d="
M 630.00 610.00 
C 630.16 605.71 630.16 601.29 630.00 597.00
C 628.11 547.55 566.05 521.02 526.75 547.75 C 487.45 574.48 486.91 635.82 527.75 661.25 C 568.59 686.67 628.09 660.08 630.00 610.00
M 546.00 571.00 
C 545.80 576.29 547.26 583.63 545.00 588.00
C 539.81 598.04 536.54 579.26 538.00 573.00 C 539.46 566.74 539.24 556.44 545.75 551.75 C 552.26 547.07 558.10 542.60 566.22 544.78 C 574.34 546.96 578.88 546.39 584.75 554.25 C 590.62 562.11 587.30 568.15 589.00 579.00 C 590.70 589.85 582.27 595.03 582.00 583.00 C 581.73 570.97 583.54 566.84 578.23 558.77 C 572.91 550.70 565.08 551.96 557.33 553.33 C 549.58 554.69 546.26 564.25 546.00 571.00 Z"/>
</g>
<g fill="#DCDEDE" fill-opacity="1.00" stroke="None">
<path d="
M 545.00 588.00 
C 546.50 583.57 545.40 575.21 546.00 571.00
C 546.26 564.25 549.58 554.69 557.33 553.33 C 565.08 551.96 572.91 550.70 578.23 558.77 C 583.54 566.84 581.73 570.97 582.00 583.00 C 582.27 595.03 590.70 589.85 589.00 579.00 C 587.30 568.15 590.62 562.11 584.75 554.25 C 578.88 546.39 574.34 546.96 566.22 544.78 C 558.10 542.60 552.26 547.07 545.75 551.75 C 539.24 556.44 539.46 566.74 538.00 573.00 C 536.54 579.26 539.81 598.04 545.00 588.00 Z"/>
</g>
<g fill="#8A9294" fill-opacity="1.00" stroke="None">
<path d="
M 545.00 588.00 
C 547.26 583.63 545.80 576.29 546.00 571.00
C 545.40 575.21 546.50 583.57 545.00 588.00 Z"/>
</g>
<g fill="#E6E5E6" fill-opacity="1.00" stroke="None">
<path d="
M 713.00 577.00 
C 677.41 569.63 667.90 621.14 700.93 629.07 C 733.96 637.01 745.14 583.66 713.00 577.00 Z"/>
</g>
<g fill="#7F8A89" fill-opacity="1.00" stroke="None">
<path d="
M 630.00 610.00 
C 630.60 605.79 630.61 601.27 630.00 597.00
C 630.16 601.29 630.16 605.71 630.00 610.00 Z"/>
</g>
<g fill="#828C8D" fill-opacity="1.00" stroke="None">
<path d="
M 682.00 710.00 
C 683.94 703.61 681.75 694.89 683.00 688.00 C 684.25 681.11 680.18 671.24 683.00 665.00
C 679.23 670.42 683.31 680.17 682.00 687.00 C 680.69 693.83 683.18 703.00 682.00 710.00 Z"/>
</g>
</svg>